<svg xmlns="http://www.w3.org/2000/svg" xmlns:xlink="http://www.w3.org/1999/xlink" width="500" zoomAndPan="magnify" viewBox="0 0 375 374.999991" height="500" preserveAspectRatio="xMidYMid meet" version="1.0"><defs><clipPath id="id1"><path d="M 6.652344 41.011719 L 368.152344 41.011719 L 368.152344 334.261719 L 6.652344 334.261719 Z M 6.652344 41.011719 " clip-rule="nonzero"/></clipPath><clipPath id="id2"><path d="M 182.234375 112.195312 L 294.734375 112.195312 L 294.734375 146 L 182.234375 146 Z M 182.234375 112.195312 " clip-rule="nonzero"/></clipPath><clipPath id="id3"><path d="M 231 179 L 246 179 L 246 193.945312 L 231 193.945312 Z M 231 179 " clip-rule="nonzero"/></clipPath></defs><g clip-path="url(#id1)"><path fill="#000000" d="M 325.117188 41.101562 L 49.6875 41.101562 C 48.277344 41.101562 46.875 41.171875 45.472656 41.3125 C 44.070312 41.453125 42.675781 41.660156 41.296875 41.9375 C 39.914062 42.210938 38.546875 42.554688 37.199219 42.964844 C 35.851562 43.375 34.527344 43.851562 33.226562 44.394531 C 31.925781 44.933594 30.652344 45.535156 29.410156 46.203125 C 28.167969 46.867188 26.960938 47.59375 25.789062 48.378906 C 24.617188 49.160156 23.488281 50 22.398438 50.898438 C 21.308594 51.792969 20.265625 52.738281 19.269531 53.738281 C 18.273438 54.734375 17.328125 55.777344 16.433594 56.871094 C 15.539062 57.960938 14.703125 59.09375 13.917969 60.265625 C 13.136719 61.4375 12.410156 62.648438 11.746094 63.890625 C 11.082031 65.136719 10.480469 66.410156 9.941406 67.714844 C 9.398438 69.015625 8.925781 70.34375 8.515625 71.695312 C 8.105469 73.042969 7.761719 74.410156 7.488281 75.792969 C 7.210938 77.179688 7.003906 78.574219 6.863281 79.976562 C 6.722656 81.378906 6.652344 82.789062 6.652344 84.199219 L 6.652344 291.078125 C 6.652344 292.488281 6.722656 293.894531 6.863281 295.300781 C 7.003906 296.703125 7.210938 298.097656 7.488281 299.480469 C 7.761719 300.867188 8.105469 302.234375 8.515625 303.582031 C 8.925781 304.933594 9.398438 306.257812 9.941406 307.5625 C 10.480469 308.867188 11.082031 310.140625 11.746094 311.382812 C 12.410156 312.628906 13.136719 313.835938 13.917969 315.011719 C 14.703125 316.183594 15.539062 317.316406 16.433594 318.40625 C 17.328125 319.496094 18.273438 320.542969 19.269531 321.539062 C 20.265625 322.535156 21.308594 323.484375 22.398438 324.378906 C 23.488281 325.273438 24.617188 326.113281 25.789062 326.898438 C 26.960938 327.683594 28.167969 328.40625 29.410156 329.074219 C 30.652344 329.738281 31.925781 330.34375 33.226562 330.882812 C 34.527344 331.425781 35.851562 331.898438 37.199219 332.308594 C 38.546875 332.71875 39.914062 333.0625 41.296875 333.339844 C 42.675781 333.617188 44.070312 333.824219 45.472656 333.964844 C 46.875 334.105469 48.277344 334.175781 49.6875 334.175781 L 325.117188 334.175781 C 326.523438 334.175781 327.929688 334.105469 329.332031 333.964844 C 330.734375 333.824219 332.128906 333.617188 333.507812 333.339844 C 334.890625 333.0625 336.253906 332.71875 337.605469 332.308594 C 338.953125 331.898438 340.277344 331.425781 341.578125 330.882812 C 342.878906 330.34375 344.152344 329.738281 345.394531 329.074219 C 346.636719 328.40625 347.84375 327.683594 349.015625 326.898438 C 350.1875 326.113281 351.316406 325.273438 352.40625 324.378906 C 353.496094 323.484375 354.539062 322.539062 355.535156 321.539062 C 356.53125 320.542969 357.476562 319.496094 358.371094 318.40625 C 359.261719 317.316406 360.101562 316.183594 360.886719 315.011719 C 361.667969 313.835938 362.390625 312.628906 363.058594 311.382812 C 363.722656 310.140625 364.324219 308.867188 364.863281 307.5625 C 365.402344 306.257812 365.878906 304.933594 366.289062 303.582031 C 366.699219 302.234375 367.042969 300.867188 367.316406 299.480469 C 367.59375 298.097656 367.800781 296.703125 367.941406 295.300781 C 368.082031 293.894531 368.152344 292.488281 368.152344 291.078125 L 368.152344 84.199219 C 368.152344 82.789062 368.082031 81.378906 367.941406 79.976562 C 367.800781 78.574219 367.59375 77.179688 367.316406 75.792969 C 367.042969 74.410156 366.699219 73.042969 366.289062 71.695312 C 365.878906 70.34375 365.402344 69.015625 364.863281 67.714844 C 364.324219 66.410156 363.722656 65.136719 363.058594 63.890625 C 362.390625 62.648438 361.667969 61.4375 360.886719 60.265625 C 360.101562 59.09375 359.261719 57.960938 358.371094 56.871094 C 357.476562 55.777344 356.53125 54.734375 355.535156 53.738281 C 354.539062 52.738281 353.496094 51.792969 352.40625 50.898438 C 351.316406 50 350.1875 49.160156 349.015625 48.378906 C 347.84375 47.59375 346.636719 46.867188 345.394531 46.203125 C 344.152344 45.535156 342.878906 44.933594 341.578125 44.394531 C 340.277344 43.851562 338.953125 43.375 337.605469 42.964844 C 336.253906 42.554688 334.890625 42.210938 333.507812 41.9375 C 332.128906 41.660156 330.734375 41.453125 329.332031 41.3125 C 327.929688 41.171875 326.523438 41.101562 325.117188 41.101562 Z M 350.9375 291.078125 C 350.9375 291.921875 350.894531 292.769531 350.8125 293.609375 C 350.726562 294.453125 350.601562 295.289062 350.4375 296.121094 C 350.269531 296.949219 350.066406 297.769531 349.820312 298.582031 C 349.574219 299.390625 349.289062 300.1875 348.964844 300.96875 C 348.640625 301.75 348.28125 302.515625 347.878906 303.261719 C 347.480469 304.007812 347.046875 304.734375 346.578125 305.4375 C 346.109375 306.140625 345.605469 306.820312 345.066406 307.472656 C 344.53125 308.128906 343.964844 308.753906 343.367188 309.355469 C 342.769531 309.953125 342.144531 310.519531 341.488281 311.058594 C 340.835938 311.59375 340.15625 312.097656 339.457031 312.570312 C 338.753906 313.039062 338.027344 313.476562 337.28125 313.875 C 336.539062 314.273438 335.773438 314.636719 334.992188 314.960938 C 334.210938 315.285156 333.417969 315.570312 332.609375 315.816406 C 331.800781 316.0625 330.980469 316.269531 330.152344 316.433594 C 329.324219 316.601562 328.488281 316.726562 327.644531 316.808594 C 326.804688 316.894531 325.960938 316.933594 325.117188 316.9375 L 49.6875 316.9375 C 48.84375 316.933594 48 316.894531 47.15625 316.808594 C 46.316406 316.726562 45.480469 316.601562 44.652344 316.433594 C 43.824219 316.269531 43.003906 316.0625 42.195312 315.816406 C 41.386719 315.570312 40.589844 315.285156 39.8125 314.960938 C 39.03125 314.636719 38.265625 314.273438 37.519531 313.875 C 36.777344 313.476562 36.050781 313.039062 35.347656 312.570312 C 34.644531 312.097656 33.96875 311.59375 33.3125 311.058594 C 32.660156 310.519531 32.035156 309.953125 31.4375 309.355469 C 30.839844 308.753906 30.273438 308.128906 29.734375 307.472656 C 29.199219 306.820312 28.695312 306.140625 28.226562 305.4375 C 27.757812 304.734375 27.324219 304.007812 26.921875 303.261719 C 26.523438 302.515625 26.164062 301.75 25.839844 300.96875 C 25.515625 300.1875 25.230469 299.390625 24.984375 298.582031 C 24.738281 297.769531 24.53125 296.949219 24.367188 296.121094 C 24.203125 295.289062 24.078125 294.453125 23.992188 293.609375 C 23.910156 292.769531 23.867188 291.921875 23.867188 291.078125 L 23.867188 84.199219 C 23.867188 83.351562 23.910156 82.507812 23.992188 81.664062 C 24.078125 80.824219 24.203125 79.988281 24.367188 79.15625 C 24.53125 78.328125 24.738281 77.507812 24.984375 76.695312 C 25.230469 75.886719 25.515625 75.089844 25.839844 74.308594 C 26.164062 73.527344 26.523438 72.761719 26.921875 72.015625 C 27.324219 71.269531 27.757812 70.542969 28.226562 69.839844 C 28.695312 69.136719 29.199219 68.457031 29.734375 67.800781 C 30.273438 67.148438 30.839844 66.519531 31.4375 65.921875 C 32.035156 65.324219 32.660156 64.753906 33.3125 64.21875 C 33.96875 63.679688 34.644531 63.175781 35.347656 62.707031 C 36.050781 62.234375 36.777344 61.800781 37.519531 61.402344 C 38.265625 61.003906 39.03125 60.640625 39.8125 60.316406 C 40.589844 59.992188 41.386719 59.707031 42.195312 59.460938 C 43.003906 59.214844 43.824219 59.007812 44.652344 58.839844 C 45.480469 58.675781 46.316406 58.550781 47.15625 58.46875 C 48 58.382812 48.84375 58.339844 49.6875 58.339844 L 325.117188 58.339844 C 325.960938 58.339844 326.804688 58.382812 327.644531 58.46875 C 328.488281 58.550781 329.324219 58.675781 330.152344 58.839844 C 330.980469 59.007812 331.800781 59.214844 332.609375 59.460938 C 333.417969 59.707031 334.210938 59.992188 334.992188 60.316406 C 335.773438 60.640625 336.539062 61.003906 337.28125 61.402344 C 338.027344 61.800781 338.753906 62.234375 339.457031 62.707031 C 340.15625 63.175781 340.835938 63.679688 341.488281 64.21875 C 342.144531 64.753906 342.769531 65.324219 343.367188 65.921875 C 343.964844 66.519531 344.53125 67.148438 345.066406 67.800781 C 345.605469 68.457031 346.109375 69.136719 346.578125 69.839844 C 347.046875 70.542969 347.480469 71.269531 347.878906 72.015625 C 348.28125 72.761719 348.640625 73.527344 348.964844 74.308594 C 349.289062 75.089844 349.574219 75.886719 349.820312 76.695312 C 350.066406 77.507812 350.269531 78.328125 350.4375 79.15625 C 350.601562 79.988281 350.726562 80.824219 350.8125 81.664062 C 350.894531 82.507812 350.9375 83.351562 350.9375 84.199219 Z M 159.058594 181.542969 C 159.457031 181.945312 159.816406 182.378906 160.128906 182.847656 C 160.445312 183.320312 160.707031 183.816406 160.925781 184.339844 C 161.140625 184.863281 161.304688 185.402344 161.414062 185.957031 C 161.523438 186.511719 161.582031 187.070312 161.582031 187.636719 C 161.582031 188.203125 161.523438 188.765625 161.414062 189.320312 C 161.304688 189.875 161.140625 190.414062 160.925781 190.9375 C 160.707031 191.457031 160.445312 191.957031 160.128906 192.425781 C 159.816406 192.898438 159.457031 193.332031 159.058594 193.730469 L 90.203125 262.691406 C 89.800781 263.078125 89.363281 263.425781 88.894531 263.730469 C 88.425781 264.035156 87.929688 264.289062 87.414062 264.496094 C 86.894531 264.703125 86.359375 264.859375 85.808594 264.960938 C 85.261719 265.066406 84.707031 265.117188 84.148438 265.109375 C 83.589844 265.105469 83.035156 265.046875 82.488281 264.933594 C 81.941406 264.820312 81.410156 264.65625 80.894531 264.441406 C 80.378906 264.222656 79.890625 263.960938 79.425781 263.648438 C 78.960938 263.335938 78.53125 262.980469 78.136719 262.585938 C 77.742188 262.191406 77.386719 261.761719 77.078125 261.296875 C 76.765625 260.832031 76.5 260.339844 76.285156 259.824219 C 76.070312 259.308594 75.90625 258.777344 75.792969 258.226562 C 75.679688 257.679688 75.621094 257.125 75.617188 256.566406 C 75.609375 256.007812 75.660156 255.453125 75.761719 254.902344 C 75.867188 254.351562 76.019531 253.816406 76.226562 253.296875 C 76.433594 252.777344 76.691406 252.28125 76.992188 251.8125 C 77.296875 251.339844 77.644531 250.90625 78.03125 250.503906 L 140.804688 187.636719 L 78.03125 124.773438 C 77.640625 124.371094 77.296875 123.933594 76.992188 123.464844 C 76.691406 122.996094 76.433594 122.5 76.226562 121.980469 C 76.019531 121.460938 75.867188 120.925781 75.761719 120.375 C 75.660156 119.824219 75.609375 119.269531 75.613281 118.710938 C 75.621094 118.152344 75.679688 117.597656 75.792969 117.046875 C 75.902344 116.5 76.066406 115.96875 76.285156 115.453125 C 76.5 114.9375 76.765625 114.445312 77.074219 113.980469 C 77.386719 113.515625 77.742188 113.085938 78.136719 112.691406 C 78.53125 112.292969 78.960938 111.941406 79.425781 111.628906 C 79.886719 111.316406 80.378906 111.050781 80.894531 110.835938 C 81.410156 110.621094 81.941406 110.457031 82.488281 110.34375 C 83.035156 110.230469 83.589844 110.171875 84.148438 110.164062 C 84.707031 110.160156 85.261719 110.210938 85.808594 110.3125 C 86.359375 110.417969 86.894531 110.570312 87.410156 110.78125 C 87.929688 110.988281 88.425781 111.242188 88.894531 111.546875 C 89.363281 111.851562 89.800781 112.195312 90.203125 112.585938 Z M 299.292969 256.597656 C 299.296875 257.164062 299.242188 257.722656 299.128906 258.277344 C 299.019531 258.835938 298.855469 259.375 298.640625 259.898438 C 298.425781 260.417969 298.160156 260.917969 297.847656 261.386719 C 297.53125 261.859375 297.175781 262.292969 296.773438 262.695312 C 296.375 263.09375 295.941406 263.453125 295.472656 263.765625 C 295 264.082031 294.503906 264.347656 293.980469 264.5625 C 293.460938 264.777344 292.921875 264.941406 292.367188 265.050781 C 291.8125 265.164062 291.253906 265.21875 290.6875 265.21875 L 187.402344 265.21875 C 186.835938 265.21875 186.277344 265.160156 185.722656 265.050781 C 185.167969 264.941406 184.628906 264.777344 184.109375 264.5625 C 183.585938 264.34375 183.089844 264.078125 182.621094 263.765625 C 182.148438 263.449219 181.714844 263.09375 181.316406 262.691406 C 180.917969 262.292969 180.558594 261.855469 180.246094 261.386719 C 179.929688 260.914062 179.667969 260.417969 179.449219 259.894531 C 179.234375 259.371094 179.070312 258.832031 178.960938 258.277344 C 178.851562 257.722656 178.792969 257.164062 178.792969 256.597656 C 178.792969 256.03125 178.851562 255.46875 178.960938 254.914062 C 179.070312 254.359375 179.234375 253.820312 179.449219 253.296875 C 179.667969 252.777344 179.929688 252.277344 180.246094 251.808594 C 180.558594 251.335938 180.917969 250.902344 181.316406 250.503906 C 181.714844 250.101562 182.148438 249.746094 182.621094 249.429688 C 183.089844 249.117188 183.585938 248.851562 184.109375 248.632812 C 184.628906 248.417969 185.167969 248.253906 185.722656 248.144531 C 186.277344 248.03125 186.835938 247.976562 187.402344 247.976562 L 290.6875 247.976562 C 291.253906 247.976562 291.8125 248.03125 292.367188 248.140625 C 292.921875 248.253906 293.460938 248.414062 293.980469 248.632812 C 294.503906 248.847656 295 249.113281 295.472656 249.429688 C 295.941406 249.742188 296.375 250.101562 296.773438 250.5 C 297.175781 250.902344 297.53125 251.335938 297.847656 251.808594 C 298.160156 252.277344 298.425781 252.773438 298.640625 253.296875 C 298.855469 253.820312 299.019531 254.359375 299.128906 254.914062 C 299.242188 255.46875 299.296875 256.03125 299.292969 256.597656 Z M 299.292969 256.597656 " fill-opacity="1" fill-rule="nonzero"/></g><g clip-path="url(#id2)"><path fill="#00000d" d="M 292.300781 134.445312 C 285.035156 127.195312 276.5625 121.582031 267.117188 117.757812 C 258 114.066406 248.367188 112.195312 238.488281 112.195312 C 228.609375 112.195312 218.976562 114.066406 209.859375 117.757812 C 200.417969 121.582031 191.945312 127.195312 184.675781 134.445312 C 182.246094 136.871094 182.246094 140.800781 184.675781 143.226562 C 187.109375 145.652344 191.050781 145.652344 193.480469 143.226562 C 218.296875 118.472656 258.679688 118.472656 283.496094 143.226562 C 284.710938 144.441406 286.304688 145.046875 287.898438 145.046875 C 289.492188 145.046875 291.085938 144.441406 292.300781 143.226562 C 294.730469 140.800781 294.730469 136.871094 292.300781 134.445312 Z M 292.300781 134.445312 " fill-opacity="1" fill-rule="nonzero"/></g><path fill="#00000d" d="M 238.476562 134.800781 C 224.0625 134.800781 210.503906 140.40625 200.300781 150.582031 C 198.003906 152.875 198.003906 156.59375 200.300781 158.886719 C 202.597656 161.179688 206.324219 161.179688 208.625 158.886719 C 225.082031 142.46875 251.863281 142.46875 268.320312 158.886719 C 269.472656 160.03125 270.976562 160.605469 272.484375 160.605469 C 273.988281 160.605469 275.496094 160.03125 276.644531 158.886719 C 278.945312 156.59375 278.945312 152.875 276.644531 150.582031 C 266.441406 140.40625 252.882812 134.800781 238.472656 134.800781 Z M 238.476562 134.800781 " fill-opacity="1" fill-rule="nonzero"/><path fill="#00000d" d="M 238.476562 155.992188 C 229.710938 155.992188 221.46875 159.398438 215.265625 165.585938 C 212.980469 167.867188 212.980469 171.566406 215.265625 173.84375 C 217.550781 176.125 221.261719 176.125 223.546875 173.84375 C 231.777344 165.636719 245.171875 165.636719 253.402344 173.84375 C 254.546875 174.984375 256.042969 175.554688 257.542969 175.554688 C 259.042969 175.554688 260.539062 174.984375 261.683594 173.84375 C 263.96875 171.566406 263.96875 167.867188 261.683594 165.585938 C 255.480469 159.398438 247.238281 155.992188 238.476562 155.992188 Z M 238.476562 155.992188 " fill-opacity="1" fill-rule="nonzero"/><g clip-path="url(#id3)"><path fill="#000000" d="M 245.601562 186.75 C 245.601562 187.222656 245.554688 187.691406 245.460938 188.152344 C 245.367188 188.617188 245.230469 189.066406 245.050781 189.5 C 244.871094 189.9375 244.648438 190.351562 244.386719 190.742188 C 244.121094 191.136719 243.824219 191.5 243.488281 191.832031 C 243.15625 192.167969 242.789062 192.464844 242.398438 192.726562 C 242.003906 192.988281 241.589844 193.210938 241.152344 193.390625 C 240.714844 193.570312 240.261719 193.707031 239.800781 193.800781 C 239.335938 193.890625 238.867188 193.9375 238.394531 193.9375 C 237.921875 193.9375 237.453125 193.890625 236.988281 193.800781 C 236.523438 193.707031 236.074219 193.570312 235.636719 193.390625 C 235.199219 193.210938 234.785156 192.988281 234.390625 192.726562 C 233.996094 192.464844 233.632812 192.167969 233.296875 191.832031 C 232.964844 191.5 232.664062 191.136719 232.402344 190.742188 C 232.140625 190.351562 231.917969 189.9375 231.734375 189.5 C 231.554688 189.066406 231.417969 188.617188 231.324219 188.152344 C 231.234375 187.691406 231.1875 187.222656 231.1875 186.75 C 231.1875 186.277344 231.234375 185.8125 231.324219 185.347656 C 231.417969 184.886719 231.554688 184.433594 231.734375 184 C 231.917969 183.5625 232.140625 183.148438 232.402344 182.757812 C 232.664062 182.363281 232.964844 182 233.296875 181.667969 C 233.632812 181.332031 233.996094 181.035156 234.390625 180.773438 C 234.785156 180.511719 235.199219 180.289062 235.636719 180.109375 C 236.074219 179.929688 236.523438 179.792969 236.988281 179.699219 C 237.453125 179.609375 237.921875 179.5625 238.394531 179.5625 C 238.867188 179.5625 239.335938 179.609375 239.800781 179.699219 C 240.261719 179.792969 240.714844 179.929688 241.152344 180.109375 C 241.589844 180.289062 242.003906 180.511719 242.398438 180.773438 C 242.789062 181.035156 243.15625 181.332031 243.488281 181.667969 C 243.824219 182 244.121094 182.363281 244.386719 182.757812 C 244.648438 183.148438 244.871094 183.5625 245.050781 184 C 245.230469 184.433594 245.367188 184.886719 245.460938 185.347656 C 245.554688 185.8125 245.601562 186.277344 245.601562 186.75 Z M 245.601562 186.75 " fill-opacity="1" fill-rule="nonzero"/></g></svg>